<?xml version="1.0" standalone="no"?>
<!DOCTYPE svg PUBLIC "-//W3C//DTD SVG 20010904//EN"
 "http://www.w3.org/TR/2001/REC-SVG-20010904/DTD/svg10.dtd">
<svg version="1.0" xmlns="http://www.w3.org/2000/svg"
 width="132.000000pt" height="132.000000pt" viewBox="0 0 132.000000 132.000000"
 preserveAspectRatio="xMidYMid meet">
<metadata>
Created by potrace 1.11, written by Peter Selinger 2001-2013
</metadata>
<g transform="translate(0.000000,132.000000) scale(0.100000,-0.100000)"
fill="#000000" stroke="none">
<path d="M670 999 c-8 -4 -30 -13 -48 -20 -18 -6 -46 -24 -62 -39 -21 -20 -32
-24 -41 -16 -9 8 -10 7 -4 -4 8 -13 7 -13 -8 -1 -13 10 -17 10 -17 1 0 -7 -7
-10 -15 -6 -8 3 -15 0 -15 -6 0 -6 -3 -9 -6 -5 -8 8 -44 -25 -38 -35 3 -4 1
-8 -5 -8 -31 0 -33 -140 -3 -172 9 -10 31 -31 47 -48 17 -18 23 -30 15 -28 -8
2 -17 5 -20 8 -3 3 -18 13 -35 22 -16 9 -30 21 -30 27 0 5 -3 12 -7 16 -3 4
-4 18 -2 32 4 20 2 22 -8 12 -15 -13 -19 -79 -6 -79 5 0 7 -3 5 -7 -2 -5 4
-16 15 -25 10 -10 18 -15 18 -12 0 4 7 0 17 -7 9 -8 28 -14 42 -15 15 0 31 -3
37 -6 10 -7 97 34 118 55 6 6 18 28 26 47 8 19 19 40 25 46 14 15 97 12 103
-4 2 -7 11 -12 19 -12 9 0 13 -6 10 -14 -3 -8 -1 -16 4 -18 6 -2 11 -19 11
-37 1 -26 -6 -40 -28 -58 -49 -40 -50 -40 -101 -45 -7 -1 -13 -4 -13 -8 0 -4
-18 -6 -41 -6 -22 1 -45 -2 -51 -5 -6 -4 -22 -3 -34 1 -14 6 -26 5 -29 0 -3
-6 -15 -6 -30 0 -15 6 -27 6 -30 0 -4 -7 -13 -6 -25 0 -13 7 -21 7 -25 0 -4
-6 -11 -8 -16 -4 -5 3 -95 7 -199 9 -176 2 -190 1 -190 -15 0 -11 10 -20 25
-22 14 -3 25 -1 25 3 0 5 10 5 23 0 14 -6 30 -5 41 1 13 7 17 7 12 0 -4 -7 4
-10 21 -8 16 1 36 -1 45 -6 10 -5 19 -4 23 2 4 6 11 8 16 5 5 -4 65 -7 134 -8
126 -2 158 -13 53 -19 -32 -1 -58 -5 -58 -8 0 -5 -86 -12 -182 -14 -31 0 -54
-5 -51 -10 3 -4 -1 -13 -8 -18 -11 -8 -10 -9 3 -4 10 3 18 1 18 -5 0 -6 5 -7
10 -4 6 4 7 12 3 18 -3 7 2 4 13 -5 13 -12 24 -14 34 -8 21 14 32 12 24 -2 -6
-9 -3 -9 9 0 9 8 21 11 27 7 5 -3 10 -3 10 2 0 4 30 9 68 10 104 3 152 7 152
15 0 3 8 5 17 4 10 -2 43 4 73 12 30 8 60 15 65 16 6 1 16 5 23 9 6 5 17 5 22
2 6 -3 10 0 10 7 0 10 2 10 9 -1 7 -11 0 -19 -27 -34 -20 -11 -41 -20 -47 -21
-5 -1 -20 -8 -32 -14 -13 -7 -23 -11 -23 -8 0 3 -20 -4 -45 -15 -25 -11 -50
-17 -55 -14 -6 3 -10 2 -10 -3 0 -9 -2 -10 -70 -15 -37 -3 -45 -7 -45 -23 0
-15 8 -20 39 -22 24 -2 42 2 47 10 5 8 9 8 9 2 0 -14 81 5 92 21 4 5 8 7 8 3
0 -4 24 2 53 13 28 12 58 22 65 22 6 0 12 4 12 8 0 4 14 12 30 18 17 5 30 15
30 20 0 6 5 11 10 11 18 0 80 71 96 109 18 43 26 118 14 126 -5 3 -7 12 -4 19
7 19 -50 82 -84 92 -15 4 -30 8 -34 9 -5 2 -15 3 -25 4 -26 2 -10 10 33 17 21
3 40 7 42 9 5 5 96 -15 101 -23 4 -4 15 -12 26 -18 38 -21 67 -88 68 -164 2
-54 -1 -69 -11 -65 -7 2 -12 -1 -10 -8 5 -29 -81 -137 -104 -130 -4 2 -5 -4
-2 -12 4 -8 10 -15 16 -15 5 0 6 5 3 10 -3 6 1 10 9 10 8 0 20 9 26 20 6 11
15 19 19 17 5 -1 9 2 9 6 1 5 12 19 26 32 13 12 22 26 18 29 -3 4 0 11 8 16 8
5 15 19 17 32 5 46 11 77 17 87 4 5 2 12 -4 16 -5 3 -10 11 -10 16 0 6 5 7 11
3 6 -3 3 5 -6 20 -10 14 -14 26 -11 26 4 0 0 10 -9 23 -8 13 -13 27 -10 30 3
4 2 5 -1 3 -3 -2 -20 12 -39 31 -18 19 -36 34 -39 34 -18 -3 -27 0 -22 7 2 4
-29 7 -70 7 -41 0 -74 -3 -74 -7 0 -5 -3 -7 -7 -6 -16 3 -63 -15 -63 -24 0 -5
-4 -7 -9 -3 -5 3 -18 -6 -29 -20 -11 -13 -23 -21 -27 -17 -3 4 -6 3 -4 -3 1
-5 -5 -27 -15 -48 -9 -21 -14 -43 -10 -48 4 -8 0 -8 -13 0 -26 13 -62 101 -42
101 6 0 8 4 4 10 -7 11 27 76 53 100 56 52 154 73 280 58 6 -1 12 -5 12 -9 0
-4 8 -6 18 -4 44 7 202 -110 202 -151 0 -8 4 -14 8 -14 15 0 34 -90 28 -132
-3 -24 -7 -52 -8 -63 -2 -11 -7 -23 -13 -27 -6 -5 -5 -8 3 -8 7 0 11 -4 8 -9
-4 -5 2 -8 11 -7 10 2 24 16 32 32 16 32 23 164 9 164 -5 0 -7 4 -4 9 7 10
-16 71 -26 71 -4 0 -8 5 -8 11 0 6 -12 26 -27 46 l-28 36 25 -14 c14 -8 28
-18 32 -24 4 -5 8 -6 8 -1 0 5 9 -1 20 -14 11 -13 20 -20 20 -16 0 11 55 -56
81 -99 28 -47 59 -58 59 -22 0 13 -9 33 -20 45 -11 12 -20 28 -20 37 0 9 -4
13 -10 10 -5 -3 -10 -2 -10 2 0 19 -74 82 -125 107 -30 15 -57 27 -60 27 -2 0
-19 5 -37 10 -18 6 -44 12 -58 15 -13 3 -27 8 -30 12 -5 7 -14 10 -48 15 -9 1
-23 7 -31 11 -11 7 -12 6 -6 -5 7 -12 6 -12 -7 -1 -18 14 -161 15 -188 1z
m-173 -136 c-36 -62 -30 -135 15 -187 24 -27 17 -30 -19 -9 -55 31 -92 142
-59 175 8 9 13 18 10 21 -3 3 3 10 14 16 11 6 22 7 26 4 3 -3 6 -2 6 4 0 5 6
10 14 10 10 0 8 -9 -7 -34z"/>
</g>
</svg>
